# xmcd
# Track frame offsets:
# 150
# 15092
# 26795
# 41627
# 58782
# 79720
# 99372
# 118137
# 132717
# 147632
# 183075
# 203080
#
# Disc length: 2920 seconds
# Revision: 0
# Processed by: cddbd v1.4PL0 Copyright (c) Steve Scherf et al.
# Submitted via: VisiTrax 2.9.5.180 - For more info visit www.synapsa.com
#
DISCID=a40b660c
DTITLE=Philpi Norris - On the run
DYEAR=1900
DGENRE=
TTITLE0=Old blue
TTITLE1=(love at) First sight
TTITLE2=Crazy about you
TTITLE3=The rescue
TTITLE4=Femme fatale
TTITLE5=Firgiven
TTITLE6=Angela's song
TTITLE7=On the run
TTITLE8=Hell's own fire
TTITLE9=Restless shadows
TTITLE10=Love is gone
TTITLE11=Karat fool
EXTD=
EXTT0=
EXTT1=
EXTT2=
EXTT3=
EXTT4=
EXTT5=
EXTT6=
EXTT7=
EXTT8=
EXTT9=
EXTT10=
EXTT11=
PLAYORDER=
